<svg width="352" height="63" viewBox="0 0 352 63" fill="none" xmlns="http://www.w3.org/2000/svg">
<g filter="url(#filter0_dd_1_785)">
<path d="M3.5 23.5371C3.5 14.109 3.5 9.39497 6.42893 6.46604C9.35786 3.53711 14.0719 3.53711 23.5 3.53711H328.5C337.928 3.53711 342.642 3.53711 345.571 6.46604C348.5 9.39497 348.5 14.109 348.5 23.5371V37.5371C348.5 46.9652 348.5 51.6792 345.571 54.6082C342.642 57.5371 337.928 57.5371 328.5 57.5371H23.5C14.0719 57.5371 9.35786 57.5371 6.42893 54.6082C3.5 51.6792 3.5 46.9652 3.5 37.5371V23.5371Z" fill="black"/>
<rect x="60" y="3.53711" width="233" height="54" rx="10" fill="black"/>
<g clip-path="url(#clip0_1_785)">
<rect width="24" height="24" transform="translate(75 18.5371)" fill="black"/>
<path d="M96.2806 36.9611C95.9328 37.7646 95.5211 38.5043 95.0441 39.1843C94.3939 40.1114 93.8615 40.7531 93.4512 41.1095C92.8151 41.6944 92.1337 41.9939 91.4039 42.011C90.8801 42.011 90.2483 41.8619 89.5129 41.5595C88.7751 41.2585 88.097 41.1095 87.477 41.1095C86.8268 41.1095 86.1294 41.2585 85.3835 41.5595C84.6365 41.8619 84.0347 42.0195 83.5745 42.0351C82.8748 42.0649 82.1772 41.7569 81.481 41.1095C81.0367 40.7219 80.4808 40.0575 79.815 39.1162C79.1006 38.111 78.5133 36.9455 78.0531 35.6166C77.5604 34.1813 77.3133 32.7914 77.3133 31.4458C77.3133 29.9044 77.6464 28.575 78.3135 27.461C78.8378 26.5661 79.5353 25.8602 80.4083 25.342C81.2813 24.8238 82.2245 24.5598 83.2403 24.5429C83.7961 24.5429 84.525 24.7148 85.4308 25.0527C86.334 25.3917 86.914 25.5637 87.1682 25.5637C87.3583 25.5637 88.0026 25.3626 89.0948 24.9618C90.1276 24.5902 90.9993 24.4363 91.7134 24.4969C93.6485 24.6531 95.1023 25.4159 96.0691 26.7901C94.3385 27.8387 93.4824 29.3074 93.4994 31.1915C93.5151 32.6591 94.0474 33.8803 95.0938 34.85C95.568 35.3 96.0975 35.6478 96.6867 35.8949C96.5589 36.2654 96.424 36.6203 96.2806 36.9611ZM91.8426 19.4972C91.8426 20.6475 91.4224 21.7215 90.5848 22.7156C89.5739 23.8973 88.3513 24.5802 87.0254 24.4725C87.0085 24.3345 86.9987 24.1892 86.9987 24.0366C86.9987 22.9324 87.4794 21.7506 88.3331 20.7843C88.7593 20.2951 89.3014 19.8883 89.9587 19.5638C90.6146 19.2442 91.235 19.0674 91.8185 19.0371C91.8355 19.1909 91.8426 19.3447 91.8426 19.4972V19.4972Z" fill="white"/>
</g>
<path d="M114.664 33.6699C114.801 36.1797 116.92 37.7715 120.104 37.7715C123.385 37.7715 125.475 36.1016 125.475 33.4453C125.475 31.3945 124.264 30.2129 121.314 29.5879L119.771 29.2656C117.945 28.875 117.223 28.1914 117.223 27.166C117.223 25.877 118.434 25.0762 120.084 25.0762C121.793 25.0762 122.955 25.9453 123.092 27.3613H125.211C125.143 24.9004 123.102 23.2109 120.113 23.2109C117.115 23.2109 114.996 24.8711 114.996 27.2832C114.996 29.3145 116.275 30.623 119.098 31.2188L120.631 31.541C122.516 31.9512 123.258 32.6348 123.258 33.7285C123.258 34.9883 121.979 35.9062 120.191 35.9062C118.316 35.9062 116.988 35.0664 116.793 33.6699H114.664ZM128.316 25.6035C128.99 25.6035 129.527 25.0566 129.527 24.3926C129.527 23.7188 128.99 23.1816 128.316 23.1816C127.643 23.1816 127.096 23.7188 127.096 24.3926C127.096 25.0566 127.643 25.6035 128.316 25.6035ZM127.262 37.5371H129.371V27.2637H127.262V37.5371ZM135.924 41.4043C138.854 41.4043 140.748 39.8027 140.748 37.3516V27.2637H138.697V29.0215H138.658C138.033 27.8301 136.842 27.0977 135.387 27.0977C132.75 27.0977 131.07 29.1289 131.07 32.3613C131.07 35.5645 132.76 37.5762 135.338 37.5762C136.803 37.5762 138.014 36.8438 138.59 35.7305H138.629V37.4199C138.629 38.8262 137.652 39.7637 136.002 39.7637C134.801 39.7637 133.863 39.1973 133.561 38.3379H131.441C131.705 40.1152 133.502 41.4043 135.924 41.4043ZM135.904 35.8281C134.283 35.8281 133.229 34.5195 133.229 32.3711C133.229 30.2324 134.283 28.875 135.904 28.875C137.555 28.875 138.639 30.2617 138.639 32.3711C138.639 34.4902 137.555 35.8281 135.904 35.8281ZM142.838 37.5371H144.947V31.5508C144.947 29.959 145.904 28.9043 147.389 28.9043C148.854 28.9043 149.576 29.7539 149.576 31.2969V37.5371H151.695V30.8867C151.695 28.5332 150.396 27.0879 148.131 27.0879C146.549 27.0879 145.455 27.8105 144.898 28.9824H144.85V27.2637H142.838V37.5371ZM160.24 23.4453H158.053V32.5859C158.053 35.623 160.221 37.7715 163.756 37.7715C167.291 37.7715 169.459 35.623 169.459 32.5859V23.4453H167.281V32.4004C167.281 34.4121 166.002 35.8281 163.756 35.8281C161.51 35.8281 160.24 34.4121 160.24 32.4004V23.4453ZM177.154 27.0977C175.67 27.0977 174.488 27.8496 173.883 29.0312H173.844V27.2637H171.803V40.9355H173.912V35.8477H173.961C174.547 36.9902 175.719 37.7129 177.193 37.7129C179.771 37.7129 181.48 35.6523 181.48 32.4004C181.48 29.1484 179.762 27.0977 177.154 27.0977ZM176.598 35.9258C174.977 35.9258 173.902 34.5391 173.902 32.4004C173.902 30.2812 174.986 28.875 176.598 28.875C178.268 28.875 179.312 30.252 179.312 32.4004C179.312 34.5586 178.268 35.9258 176.598 35.9258ZM200.729 27.2637H198.639L196.764 35.3496H196.715L194.566 27.2637H192.535L190.396 35.3496H190.357L188.482 27.2637H186.373L189.195 37.5371H191.373L193.512 29.8418H193.561L195.719 37.5371H197.916L200.729 27.2637ZM203.141 25.6035C203.814 25.6035 204.352 25.0566 204.352 24.3926C204.352 23.7188 203.814 23.1816 203.141 23.1816C202.467 23.1816 201.92 23.7188 201.92 24.3926C201.92 25.0566 202.467 25.6035 203.141 25.6035ZM202.086 37.5371H204.195V27.2637H202.086V37.5371ZM206.969 24.832V27.2637H205.475V28.9336H206.969V34.832C206.969 36.8145 207.779 37.6055 209.859 37.6055C210.328 37.6055 210.797 37.5664 211.031 37.5078V35.8379C210.895 35.8672 210.553 35.8867 210.338 35.8867C209.479 35.8867 209.088 35.4863 209.088 34.5977V28.9336H211.041V27.2637H209.088V24.832H206.969ZM212.857 37.5371H214.967V31.5996C214.967 29.9785 215.924 28.9043 217.486 28.9043C218.971 28.9043 219.732 29.8125 219.732 31.3262V37.5371H221.852V30.916C221.852 28.5918 220.504 27.0879 218.248 27.0879C216.686 27.0879 215.562 27.7812 214.996 28.9824H214.947V23.4453H212.857V37.5371ZM237.389 37.5371H239.703L234.615 23.4453H232.252L227.164 37.5371H229.439L230.729 33.7285H236.1L237.389 37.5371ZM233.385 25.7891H233.443L235.543 31.9707H231.285L233.385 25.7891ZM246.354 27.0977C244.869 27.0977 243.688 27.8496 243.082 29.0312H243.043V27.2637H241.002V40.9355H243.111V35.8477H243.16C243.746 36.9902 244.918 37.7129 246.393 37.7129C248.971 37.7129 250.68 35.6523 250.68 32.4004C250.68 29.1484 248.961 27.0977 246.354 27.0977ZM245.797 35.9258C244.176 35.9258 243.102 34.5391 243.102 32.4004C243.102 30.2812 244.186 28.875 245.797 28.875C247.467 28.875 248.512 30.252 248.512 32.4004C248.512 34.5586 247.467 35.9258 245.797 35.9258ZM257.662 27.0977C256.178 27.0977 254.996 27.8496 254.391 29.0312H254.352V27.2637H252.311V40.9355H254.42V35.8477H254.469C255.055 36.9902 256.227 37.7129 257.701 37.7129C260.279 37.7129 261.988 35.6523 261.988 32.4004C261.988 29.1484 260.27 27.0977 257.662 27.0977ZM257.105 35.9258C255.484 35.9258 254.41 34.5391 254.41 32.4004C254.41 30.2812 255.494 28.875 257.105 28.875C258.775 28.875 259.82 30.252 259.82 32.4004C259.82 34.5586 258.775 35.9258 257.105 35.9258ZM263.697 37.5371H265.807V23.4453H263.697V37.5371ZM274.781 34.5195C274.498 35.418 273.609 36.0234 272.408 36.0234C270.719 36.0234 269.645 34.8418 269.645 33.0547V32.9277H276.9V32.2051C276.9 29.0898 275.123 27.0781 272.271 27.0781C269.371 27.0781 267.516 29.2266 267.516 32.4492C267.516 35.6914 269.342 37.7324 272.359 37.7324C274.713 37.7324 276.49 36.3945 276.783 34.5195H274.781ZM272.271 28.7773C273.746 28.7773 274.742 29.8809 274.791 31.4531H269.654C269.762 29.9004 270.797 28.7773 272.271 28.7773Z" fill="white"/>
</g>
<defs>
<filter id="filter0_dd_1_785" x="0.5" y="0.537109" width="351" height="62" filterUnits="userSpaceOnUse" color-interpolation-filters="sRGB">
<feFlood flood-opacity="0" result="BackgroundImageFix"/>
<feColorMatrix in="SourceAlpha" type="matrix" values="0 0 0 0 0 0 0 0 0 0 0 0 0 0 0 0 0 0 127 0" result="hardAlpha"/>
<feOffset dy="2"/>
<feGaussianBlur stdDeviation="1.5"/>
<feColorMatrix type="matrix" values="0 0 0 0 0 0 0 0 0 0 0 0 0 0 0 0 0 0 0.168 0"/>
<feBlend mode="normal" in2="BackgroundImageFix" result="effect1_dropShadow_1_785"/>
<feColorMatrix in="SourceAlpha" type="matrix" values="0 0 0 0 0 0 0 0 0 0 0 0 0 0 0 0 0 0 127 0" result="hardAlpha"/>
<feOffset/>
<feGaussianBlur stdDeviation="1.5"/>
<feColorMatrix type="matrix" values="0 0 0 0 0 0 0 0 0 0 0 0 0 0 0 0 0 0 0.084 0"/>
<feBlend mode="normal" in2="effect1_dropShadow_1_785" result="effect2_dropShadow_1_785"/>
<feBlend mode="normal" in="SourceGraphic" in2="effect2_dropShadow_1_785" result="shape"/>
</filter>
<clipPath id="clip0_1_785">
<rect width="24" height="24" fill="white" transform="translate(75 18.5371)"/>
</clipPath>
</defs>
</svg>
