<svg width="352" height="63" viewBox="0 0 352 63" fill="none" xmlns="http://www.w3.org/2000/svg">
<g filter="url(#filter0_dd_1_786)">
<path d="M3.5 23.5371C3.5 14.109 3.5 9.39497 6.42893 6.46604C9.35786 3.53711 14.0719 3.53711 23.5 3.53711H328.5C337.928 3.53711 342.642 3.53711 345.571 6.46604C348.5 9.39497 348.5 14.109 348.5 23.5371V37.5371C348.5 46.9652 348.5 51.6792 345.571 54.6082C342.642 57.5371 337.928 57.5371 328.5 57.5371H23.5C14.0719 57.5371 9.35786 57.5371 6.42893 54.6082C3.5 51.6792 3.5 46.9652 3.5 37.5371V23.5371Z" fill="black"/>
<rect x="68" y="3.53711" width="217" height="54" rx="10" fill="black"/>
<g clip-path="url(#clip0_1_786)">
<rect width="24" height="24" transform="translate(83 18.5371)" fill="black"/>
<path d="M104.281 36.9611C103.933 37.7646 103.521 38.5043 103.044 39.1843C102.394 40.1114 101.861 40.7531 101.451 41.1095C100.815 41.6944 100.134 41.9939 99.4039 42.011C98.8801 42.011 98.2483 41.8619 97.5129 41.5595C96.7751 41.2585 96.097 41.1095 95.477 41.1095C94.8268 41.1095 94.1294 41.2585 93.3835 41.5595C92.6365 41.8619 92.0347 42.0195 91.5745 42.0351C90.8748 42.0649 90.1772 41.7569 89.481 41.1095C89.0367 40.7219 88.4808 40.0575 87.815 39.1162C87.1006 38.111 86.5133 36.9455 86.0531 35.6166C85.5604 34.1813 85.3133 32.7914 85.3133 31.4458C85.3133 29.9044 85.6464 28.575 86.3135 27.461C86.8378 26.5661 87.5353 25.8602 88.4083 25.342C89.2813 24.8238 90.2245 24.5598 91.2403 24.5429C91.7961 24.5429 92.525 24.7148 93.4308 25.0527C94.334 25.3917 94.914 25.5637 95.1682 25.5637C95.3583 25.5637 96.0026 25.3626 97.0948 24.9618C98.1276 24.5902 98.9993 24.4363 99.7134 24.4969C101.649 24.6531 103.102 25.4159 104.069 26.7901C102.338 27.8387 101.482 29.3074 101.499 31.1915C101.515 32.6591 102.047 33.8803 103.094 34.85C103.568 35.3 104.098 35.6478 104.687 35.8949C104.559 36.2654 104.424 36.6203 104.281 36.9611ZM99.8426 19.4972C99.8426 20.6475 99.4224 21.7215 98.5848 22.7156C97.5739 23.8973 96.3513 24.5802 95.0254 24.4725C95.0085 24.3345 94.9987 24.1892 94.9987 24.0366C94.9987 22.9324 95.4794 21.7506 96.3331 20.7843C96.7593 20.2951 97.3014 19.8883 97.9587 19.5638C98.6146 19.2442 99.235 19.0674 99.8185 19.0371C99.8355 19.1909 99.8426 19.3447 99.8426 19.4972V19.4972Z" fill="white"/>
</g>
<path d="M132.049 35.6426H125.486V23.4453H123.299V37.5371H132.049V35.6426ZM137.83 37.7324C140.77 37.7324 142.703 35.7109 142.703 32.4004C142.703 29.0996 140.76 27.0781 137.83 27.0781C134.9 27.0781 132.957 29.0996 132.957 32.4004C132.957 35.7109 134.891 37.7324 137.83 37.7324ZM137.83 35.9941C136.18 35.9941 135.105 34.6855 135.105 32.4004C135.105 30.125 136.18 28.8164 137.83 28.8164C139.48 28.8164 140.555 30.125 140.555 32.4004C140.555 34.6855 139.49 35.9941 137.83 35.9941ZM148.729 41.4043C151.658 41.4043 153.553 39.8027 153.553 37.3516V27.2637H151.502V29.0215H151.463C150.838 27.8301 149.646 27.0977 148.191 27.0977C145.555 27.0977 143.875 29.1289 143.875 32.3613C143.875 35.5645 145.564 37.5762 148.143 37.5762C149.607 37.5762 150.818 36.8438 151.395 35.7305H151.434V37.4199C151.434 38.8262 150.457 39.7637 148.807 39.7637C147.605 39.7637 146.668 39.1973 146.365 38.3379H144.246C144.51 40.1152 146.307 41.4043 148.729 41.4043ZM148.709 35.8281C147.088 35.8281 146.033 34.5195 146.033 32.3711C146.033 30.2324 147.088 28.875 148.709 28.875C150.359 28.875 151.443 30.2617 151.443 32.3711C151.443 34.4902 150.359 35.8281 148.709 35.8281ZM162.146 37.5371V23.4453H159.959V37.5371H162.146ZM164.49 37.5371H166.6V31.5508C166.6 29.959 167.557 28.9043 169.041 28.9043C170.506 28.9043 171.229 29.7539 171.229 31.2969V37.5371H173.348V30.8867C173.348 28.5332 172.049 27.0879 169.783 27.0879C168.201 27.0879 167.107 27.8105 166.551 28.9824H166.502V27.2637H164.49V37.5371ZM193.006 27.2637H190.916L189.041 35.3496H188.992L186.844 27.2637H184.812L182.674 35.3496H182.635L180.76 27.2637H178.65L181.473 37.5371H183.65L185.789 29.8418H185.838L187.996 37.5371H190.193L193.006 27.2637ZM195.418 25.6035C196.092 25.6035 196.629 25.0566 196.629 24.3926C196.629 23.7188 196.092 23.1816 195.418 23.1816C194.744 23.1816 194.197 23.7188 194.197 24.3926C194.197 25.0566 194.744 25.6035 195.418 25.6035ZM194.363 37.5371H196.473V27.2637H194.363V37.5371ZM199.246 24.832V27.2637H197.752V28.9336H199.246V34.832C199.246 36.8145 200.057 37.6055 202.137 37.6055C202.605 37.6055 203.074 37.5664 203.309 37.5078V35.8379C203.172 35.8672 202.83 35.8867 202.615 35.8867C201.756 35.8867 201.365 35.4863 201.365 34.5977V28.9336H203.318V27.2637H201.365V24.832H199.246ZM205.135 37.5371H207.244V31.5996C207.244 29.9785 208.201 28.9043 209.764 28.9043C211.248 28.9043 212.01 29.8125 212.01 31.3262V37.5371H214.129V30.916C214.129 28.5918 212.781 27.0879 210.525 27.0879C208.963 27.0879 207.84 27.7812 207.273 28.9824H207.225V23.4453H205.135V37.5371ZM229.666 37.5371H231.98L226.893 23.4453H224.529L219.441 37.5371H221.717L223.006 33.7285H228.377L229.666 37.5371ZM225.662 25.7891H225.721L227.82 31.9707H223.562L225.662 25.7891ZM238.631 27.0977C237.146 27.0977 235.965 27.8496 235.359 29.0312H235.32V27.2637H233.279V40.9355H235.389V35.8477H235.438C236.023 36.9902 237.195 37.7129 238.67 37.7129C241.248 37.7129 242.957 35.6523 242.957 32.4004C242.957 29.1484 241.238 27.0977 238.631 27.0977ZM238.074 35.9258C236.453 35.9258 235.379 34.5391 235.379 32.4004C235.379 30.2812 236.463 28.875 238.074 28.875C239.744 28.875 240.789 30.252 240.789 32.4004C240.789 34.5586 239.744 35.9258 238.074 35.9258ZM249.939 27.0977C248.455 27.0977 247.273 27.8496 246.668 29.0312H246.629V27.2637H244.588V40.9355H246.697V35.8477H246.746C247.332 36.9902 248.504 37.7129 249.979 37.7129C252.557 37.7129 254.266 35.6523 254.266 32.4004C254.266 29.1484 252.547 27.0977 249.939 27.0977ZM249.383 35.9258C247.762 35.9258 246.688 34.5391 246.688 32.4004C246.688 30.2812 247.771 28.875 249.383 28.875C251.053 28.875 252.098 30.252 252.098 32.4004C252.098 34.5586 251.053 35.9258 249.383 35.9258ZM255.975 37.5371H258.084V23.4453H255.975V37.5371ZM267.059 34.5195C266.775 35.418 265.887 36.0234 264.686 36.0234C262.996 36.0234 261.922 34.8418 261.922 33.0547V32.9277H269.178V32.2051C269.178 29.0898 267.4 27.0781 264.549 27.0781C261.648 27.0781 259.793 29.2266 259.793 32.4492C259.793 35.6914 261.619 37.7324 264.637 37.7324C266.99 37.7324 268.768 36.3945 269.061 34.5195H267.059ZM264.549 28.7773C266.023 28.7773 267.02 29.8809 267.068 31.4531H261.932C262.039 29.9004 263.074 28.7773 264.549 28.7773Z" fill="white"/>
</g>
<defs>
<filter id="filter0_dd_1_786" x="0.5" y="0.537109" width="351" height="62" filterUnits="userSpaceOnUse" color-interpolation-filters="sRGB">
<feFlood flood-opacity="0" result="BackgroundImageFix"/>
<feColorMatrix in="SourceAlpha" type="matrix" values="0 0 0 0 0 0 0 0 0 0 0 0 0 0 0 0 0 0 127 0" result="hardAlpha"/>
<feOffset dy="2"/>
<feGaussianBlur stdDeviation="1.5"/>
<feColorMatrix type="matrix" values="0 0 0 0 0 0 0 0 0 0 0 0 0 0 0 0 0 0 0.168 0"/>
<feBlend mode="normal" in2="BackgroundImageFix" result="effect1_dropShadow_1_786"/>
<feColorMatrix in="SourceAlpha" type="matrix" values="0 0 0 0 0 0 0 0 0 0 0 0 0 0 0 0 0 0 127 0" result="hardAlpha"/>
<feOffset/>
<feGaussianBlur stdDeviation="1.5"/>
<feColorMatrix type="matrix" values="0 0 0 0 0 0 0 0 0 0 0 0 0 0 0 0 0 0 0.084 0"/>
<feBlend mode="normal" in2="effect1_dropShadow_1_786" result="effect2_dropShadow_1_786"/>
<feBlend mode="normal" in="SourceGraphic" in2="effect2_dropShadow_1_786" result="shape"/>
</filter>
<clipPath id="clip0_1_786">
<rect width="24" height="24" fill="white" transform="translate(83 18.5371)"/>
</clipPath>
</defs>
</svg>
