<svg width="346" height="55" viewBox="0 0 346 55" fill="none" xmlns="http://www.w3.org/2000/svg">
<path d="M0.5 16.5371C0.5 10.9366 0.5 8.13632 1.58993 5.9972C2.54867 4.11558 4.07847 2.58578 5.96009 1.62704C8.09921 0.537109 10.8995 0.537109 16.5 0.537109H329.5C335.101 0.537109 337.901 0.537109 340.04 1.62704C341.922 2.58578 343.451 4.11558 344.41 5.9972C345.5 8.13632 345.5 10.9366 345.5 16.5371V38.5371C345.5 44.1376 345.5 46.9379 344.41 49.077C343.451 50.9586 341.922 52.4884 340.04 53.4472C337.901 54.5371 335.101 54.5371 329.5 54.5371H16.5C10.8995 54.5371 8.09921 54.5371 5.96009 53.4472C4.07847 52.4884 2.54867 50.9586 1.58993 49.077C0.5 46.9379 0.5 44.1376 0.5 38.5371V16.5371Z" fill="#1877F2"/>
<rect x="36.5" y="0.537109" width="274" height="54" rx="10" fill="#1877F2"/>
<rect width="24" height="24" transform="translate(51.5 15.5371)" fill="#1877F2"/>
<path d="M75 27.607C75 21.2557 69.8513 16.107 63.5 16.107C57.1487 16.107 52 21.2557 52 27.607C52 33.347 56.2054 38.1046 61.7031 38.9673V30.9312H58.7832V27.607H61.7031V25.0734C61.7031 22.1912 63.42 20.5992 66.0468 20.5992C67.305 20.5992 68.6211 20.8238 68.6211 20.8238V23.6539H67.171C65.7424 23.6539 65.2969 24.5403 65.2969 25.4498V27.607H68.4863L67.9765 30.9312H65.2969V38.9673C70.7946 38.1046 75 33.347 75 27.607Z" fill="white"/>
<path d="M92.0234 19.1426H95.0312V30.9492H102.16V33.5371H92.0234V19.1426ZM108.801 31.5742C109.615 31.5742 110.24 31.2845 110.676 30.7051C111.112 30.1257 111.33 29.3021 111.33 28.2344C111.33 27.1667 111.112 26.3464 110.676 25.7734C110.24 25.194 109.615 24.9043 108.801 24.9043C107.987 24.9043 107.359 25.194 106.916 25.7734C106.48 26.3464 106.262 27.1667 106.262 28.2344C106.262 29.3021 106.48 30.1257 106.916 30.7051C107.359 31.2845 107.987 31.5742 108.801 31.5742ZM114.25 28.2344C114.25 29.7969 113.801 31.1348 112.902 32.248C112.004 33.3548 110.64 33.9082 108.811 33.9082C106.981 33.9082 105.617 33.3548 104.719 32.248C103.82 31.1348 103.371 29.7969 103.371 28.2344C103.371 26.6979 103.82 25.3665 104.719 24.2402C105.617 23.1139 106.981 22.5508 108.811 22.5508C110.64 22.5508 112.004 23.1139 112.902 24.2402C113.801 25.3665 114.25 26.6979 114.25 28.2344ZM120.822 31.252C121.473 31.252 122.023 31.0078 122.473 30.5195C122.922 30.0247 123.146 29.2402 123.146 28.166C123.146 27.1569 122.932 26.3887 122.502 25.8613C122.079 25.334 121.509 25.0703 120.793 25.0703C119.816 25.0703 119.143 25.5293 118.771 26.4473C118.576 26.9355 118.479 27.5378 118.479 28.2539C118.479 28.8724 118.583 29.4225 118.791 29.9043C119.169 30.8027 119.846 31.252 120.822 31.252ZM120.129 22.6387C120.663 22.6387 121.128 22.7201 121.525 22.8828C122.202 23.1628 122.749 23.6771 123.166 24.4258V22.8926H125.871V32.9902C125.871 34.3639 125.64 35.3991 125.178 36.0957C124.383 37.2936 122.86 37.8926 120.607 37.8926C119.247 37.8926 118.137 37.6257 117.277 37.0918C116.418 36.5579 115.943 35.7604 115.852 34.6992H118.879C118.957 35.0247 119.084 35.2591 119.26 35.4023C119.559 35.6562 120.064 35.7832 120.773 35.7832C121.776 35.7832 122.447 35.4479 122.785 34.7773C123.007 34.3477 123.117 33.625 123.117 32.6094V31.9258C122.85 32.3815 122.564 32.7233 122.258 32.9512C121.704 33.3743 120.985 33.5859 120.1 33.5859C118.732 33.5859 117.639 33.1074 116.818 32.1504C116.005 31.1868 115.598 29.8848 115.598 28.2441C115.598 26.6621 115.992 25.334 116.779 24.2598C117.567 23.179 118.684 22.6387 120.129 22.6387ZM137.023 33.5371H134.035V19.1426H137.023V33.5371ZM145.51 22.6387C146.61 22.6387 147.508 22.9284 148.205 23.5078C148.908 24.0807 149.26 25.0345 149.26 26.3691V33.5371H146.408V27.0625C146.408 26.5026 146.333 26.0729 146.184 25.7734C145.91 25.2266 145.389 24.9531 144.621 24.9531C143.677 24.9531 143.029 25.3535 142.678 26.1543C142.495 26.5775 142.404 27.1178 142.404 27.7754V33.5371H139.631V22.9121H142.316V24.4648C142.674 23.918 143.013 23.5241 143.332 23.2832C143.905 22.8535 144.631 22.6387 145.51 22.6387ZM162.424 22.8926H165.246L166.867 30.5586L168.527 22.8926H171.428L168.342 33.5371H165.48L163.811 25.7832L162.121 33.5371H159.23L156.242 22.8926H159.23L160.891 30.5293L162.424 22.8926ZM175.832 21.623H173.01V19.0547H175.832V21.623ZM173.01 22.8926H175.832V33.5371H173.01V22.8926ZM177.443 24.9727V22.9902H178.928V20.0215H181.682V22.9902H183.41V24.9727H181.682V30.5977C181.682 31.0339 181.737 31.3073 181.848 31.418C181.958 31.5221 182.297 31.5742 182.863 31.5742C182.948 31.5742 183.036 31.5742 183.127 31.5742C183.225 31.5677 183.319 31.5612 183.41 31.5547V33.6348L182.092 33.6836C180.777 33.7292 179.878 33.5013 179.396 33C179.084 32.681 178.928 32.1895 178.928 31.5254V24.9727H177.443ZM191.066 22.6191C191.724 22.6191 192.32 22.7331 192.854 22.9609C193.394 23.1888 193.837 23.5371 194.182 24.0059C194.475 24.403 194.654 24.8132 194.719 25.2363C194.784 25.653 194.816 26.3366 194.816 27.2871V33.5371H191.975V27.0625C191.975 26.4896 191.877 26.0273 191.682 25.6758C191.428 25.181 190.946 24.9336 190.236 24.9336C189.501 24.9336 188.941 25.181 188.557 25.6758C188.179 26.1641 187.99 26.8639 187.99 27.7754V33.5371H185.217V19.1914H187.99V24.2793C188.394 23.6608 188.859 23.2311 189.387 22.9902C189.921 22.7428 190.48 22.6191 191.066 22.6191ZM203.215 19.1621H213.42V21.6914H206.203V25.002H212.521V27.502H206.203V33.5371H203.215V19.1621ZM221.086 28.3613C220.91 28.472 220.731 28.5632 220.549 28.6348C220.373 28.6999 220.129 28.7617 219.816 28.8203L219.191 28.9375C218.605 29.0417 218.186 29.1686 217.932 29.3184C217.502 29.5723 217.287 29.9661 217.287 30.5C217.287 30.9753 217.417 31.3203 217.678 31.5352C217.945 31.7435 218.267 31.8477 218.645 31.8477C219.243 31.8477 219.794 31.6719 220.295 31.3203C220.803 30.9688 221.066 30.3275 221.086 29.3965V28.3613ZM219.396 27.0625C219.911 26.9974 220.279 26.916 220.5 26.8184C220.897 26.6491 221.096 26.3854 221.096 26.0273C221.096 25.5911 220.943 25.2917 220.637 25.1289C220.337 24.9596 219.895 24.875 219.309 24.875C218.651 24.875 218.186 25.0378 217.912 25.3633C217.717 25.6042 217.587 25.9297 217.521 26.3398H214.836C214.895 25.4089 215.155 24.6439 215.617 24.0449C216.353 23.1074 217.616 22.6387 219.406 22.6387C220.572 22.6387 221.607 22.8698 222.512 23.332C223.417 23.7943 223.869 24.6667 223.869 25.9492V30.832C223.869 31.1706 223.876 31.5807 223.889 32.0625C223.908 32.4271 223.964 32.6745 224.055 32.8047C224.146 32.9349 224.283 33.0423 224.465 33.127V33.5371H221.438C221.353 33.3223 221.294 33.1204 221.262 32.9316C221.229 32.7428 221.203 32.528 221.184 32.2871C220.799 32.7038 220.357 33.0586 219.855 33.3516C219.257 33.6966 218.579 33.8691 217.824 33.8691C216.861 33.8691 216.063 33.5957 215.432 33.0488C214.807 32.4954 214.494 31.7142 214.494 30.7051C214.494 29.3965 214.999 28.4492 216.008 27.8633C216.561 27.5443 217.375 27.3164 218.449 27.1797L219.396 27.0625ZM232.707 26.7109C232.655 26.3138 232.521 25.9557 232.307 25.6367C231.994 25.207 231.509 24.9922 230.852 24.9922C229.914 24.9922 229.273 25.4577 228.928 26.3887C228.745 26.8835 228.654 27.541 228.654 28.3613C228.654 29.1426 228.745 29.7708 228.928 30.2461C229.26 31.1315 229.885 31.5742 230.803 31.5742C231.454 31.5742 231.916 31.3984 232.189 31.0469C232.463 30.6953 232.629 30.2396 232.688 29.6797H235.529C235.464 30.526 235.158 31.3268 234.611 32.082C233.739 33.2995 232.447 33.9082 230.734 33.9082C229.022 33.9082 227.762 33.4004 226.955 32.3848C226.148 31.3691 225.744 30.0508 225.744 28.4297C225.744 26.6003 226.19 25.1777 227.082 24.1621C227.974 23.1465 229.204 22.6387 230.773 22.6387C232.108 22.6387 233.199 22.9382 234.045 23.5371C234.898 24.1361 235.402 25.194 235.559 26.7109H232.707ZM241.682 24.9043C241.037 24.9043 240.536 25.1061 240.178 25.5098C239.826 25.9134 239.605 26.4603 239.514 27.1504H243.84C243.794 26.4147 243.57 25.8581 243.166 25.4805C242.769 25.0964 242.274 24.9043 241.682 24.9043ZM241.682 22.6094C242.567 22.6094 243.365 22.7754 244.074 23.1074C244.784 23.4395 245.37 23.9635 245.832 24.6797C246.249 25.3112 246.519 26.0436 246.643 26.877C246.714 27.3652 246.743 28.0684 246.73 28.9863H239.445C239.484 30.054 239.82 30.8027 240.451 31.2324C240.835 31.4993 241.298 31.6328 241.838 31.6328C242.411 31.6328 242.876 31.4701 243.234 31.1445C243.43 30.9688 243.602 30.7246 243.752 30.4121H246.594C246.522 31.0436 246.193 31.6849 245.607 32.3359C244.696 33.3711 243.42 33.8887 241.779 33.8887C240.425 33.8887 239.23 33.4525 238.195 32.5801C237.16 31.7077 236.643 30.2884 236.643 28.3223C236.643 26.4798 237.108 25.0671 238.039 24.084C238.977 23.1009 240.191 22.6094 241.682 22.6094ZM254.367 22.6582C255.767 22.6582 256.861 23.1628 257.648 24.1719C258.443 25.181 258.84 26.4831 258.84 28.0781C258.84 29.7318 258.449 31.1022 257.668 32.1895C256.887 33.2767 255.796 33.8203 254.396 33.8203C253.518 33.8203 252.811 33.6445 252.277 33.293C251.958 33.0846 251.613 32.7201 251.242 32.1992V33.5371H248.518V19.1621H251.291V24.2793C251.643 23.7845 252.03 23.4069 252.453 23.1465C252.954 22.821 253.592 22.6582 254.367 22.6582ZM253.654 31.5254C254.37 31.5254 254.927 31.2357 255.324 30.6562C255.721 30.0768 255.92 29.3151 255.92 28.3711C255.92 27.6159 255.822 26.9909 255.627 26.4961C255.256 25.5586 254.572 25.0898 253.576 25.0898C252.567 25.0898 251.874 25.5488 251.496 26.4668C251.301 26.9551 251.203 27.5866 251.203 28.3613C251.203 29.2728 251.405 30.028 251.809 30.627C252.212 31.2259 252.827 31.5254 253.654 31.5254ZM265.617 31.5742C266.431 31.5742 267.056 31.2845 267.492 30.7051C267.928 30.1257 268.146 29.3021 268.146 28.2344C268.146 27.1667 267.928 26.3464 267.492 25.7734C267.056 25.194 266.431 24.9043 265.617 24.9043C264.803 24.9043 264.175 25.194 263.732 25.7734C263.296 26.3464 263.078 27.1667 263.078 28.2344C263.078 29.3021 263.296 30.1257 263.732 30.7051C264.175 31.2845 264.803 31.5742 265.617 31.5742ZM271.066 28.2344C271.066 29.7969 270.617 31.1348 269.719 32.248C268.82 33.3548 267.456 33.9082 265.627 33.9082C263.798 33.9082 262.434 33.3548 261.535 32.248C260.637 31.1348 260.188 29.7969 260.188 28.2344C260.188 26.6979 260.637 25.3665 261.535 24.2402C262.434 23.1139 263.798 22.5508 265.627 22.5508C267.456 22.5508 268.82 23.1139 269.719 24.2402C270.617 25.3665 271.066 26.6979 271.066 28.2344ZM277.844 31.5742C278.658 31.5742 279.283 31.2845 279.719 30.7051C280.155 30.1257 280.373 29.3021 280.373 28.2344C280.373 27.1667 280.155 26.3464 279.719 25.7734C279.283 25.194 278.658 24.9043 277.844 24.9043C277.03 24.9043 276.402 25.194 275.959 25.7734C275.523 26.3464 275.305 27.1667 275.305 28.2344C275.305 29.3021 275.523 30.1257 275.959 30.7051C276.402 31.2845 277.03 31.5742 277.844 31.5742ZM283.293 28.2344C283.293 29.7969 282.844 31.1348 281.945 32.248C281.047 33.3548 279.683 33.9082 277.854 33.9082C276.024 33.9082 274.66 33.3548 273.762 32.248C272.863 31.1348 272.414 29.7969 272.414 28.2344C272.414 26.6979 272.863 25.3665 273.762 24.2402C274.66 23.1139 276.024 22.5508 277.854 22.5508C279.683 22.5508 281.047 23.1139 281.945 24.2402C282.844 25.3665 283.293 26.6979 283.293 28.2344ZM285.266 19.1914H288V26.9453L291.467 22.9414H294.914L291.193 27.0137L295.061 33.5371H291.701L289.152 28.9863L288 30.1875V33.5371H285.266V19.1914Z" fill="white"/>
</svg>
