<svg width="352" height="63" viewBox="0 0 352 63" fill="none" xmlns="http://www.w3.org/2000/svg">
<g filter="url(#filter0_dd_1_783)">
<path d="M3.5 23.5371C3.5 14.109 3.5 9.39497 6.42893 6.46604C9.35786 3.53711 14.0719 3.53711 23.5 3.53711H328.5C337.928 3.53711 342.642 3.53711 345.571 6.46604C348.5 9.39497 348.5 14.109 348.5 23.5371V37.5371C348.5 46.9652 348.5 51.6792 345.571 54.6082C342.642 57.5371 337.928 57.5371 328.5 57.5371H23.5C14.0719 57.5371 9.35786 57.5371 6.42893 54.6082C3.5 51.6792 3.5 46.9652 3.5 37.5371V23.5371Z" fill="white"/>
<rect x="58" y="3.53711" width="236" height="54" rx="10" fill="white"/>
<rect width="24" height="24" transform="translate(73 18.5371)" fill="white"/>
<path fill-rule="evenodd" clip-rule="evenodd" d="M96.04 30.7984C96.04 29.983 95.9668 29.1989 95.8309 28.4462H85V32.8946H91.1891C90.9225 34.3321 90.1123 35.55 88.8943 36.3655V39.2509H92.6109C94.7855 37.2489 96.04 34.3007 96.04 30.7984Z" fill="#4285F4"/>
<path fill-rule="evenodd" clip-rule="evenodd" d="M84.9999 42.0369C88.1049 42.0369 90.7081 41.0072 92.6108 39.2508L88.8942 36.3653C87.8644 37.0553 86.5472 37.4631 84.9999 37.4631C82.0047 37.4631 79.4694 35.4401 78.5651 32.7219H74.7231V35.7015C76.6154 39.4599 80.5044 42.0369 84.9999 42.0369Z" fill="#34A853"/>
<path fill-rule="evenodd" clip-rule="evenodd" d="M78.5652 32.7222C78.3352 32.0322 78.2045 31.2952 78.2045 30.5372C78.2045 29.7793 78.3352 29.0422 78.5652 28.3522V25.3727H74.7232C73.9443 26.9252 73.5 28.6815 73.5 30.5372C73.5 32.3929 73.9443 34.1493 74.7232 35.7018L78.5652 32.7222Z" fill="#FBBC05"/>
<path fill-rule="evenodd" clip-rule="evenodd" d="M84.9999 23.611C86.6883 23.611 88.2042 24.1912 89.396 25.3307L92.6944 22.0323C90.7029 20.1767 88.0997 19.0371 84.9999 19.0371C80.5044 19.0371 76.6154 21.6142 74.7231 25.3726L78.5651 28.3521C79.4694 25.6339 82.0047 23.611 84.9999 23.611Z" fill="#EA4335"/>
<path d="M115.916 34.5645H122.371V36.5371H113.445V22.3184H115.916V34.5645ZM123.592 31.1562C123.592 30.1211 123.797 29.1901 124.207 28.3633C124.617 27.5299 125.193 26.8919 125.936 26.4492C126.678 26 127.531 25.7754 128.494 25.7754C129.92 25.7754 131.076 26.2344 131.961 27.1523C132.853 28.0703 133.335 29.2878 133.406 30.8047L133.416 31.3613C133.416 32.403 133.214 33.334 132.811 34.1543C132.413 34.9746 131.84 35.6094 131.092 36.0586C130.35 36.5078 129.49 36.7324 128.514 36.7324C127.023 36.7324 125.828 36.2376 124.93 35.248C124.038 34.252 123.592 32.9271 123.592 31.2734V31.1562ZM125.965 31.3613C125.965 32.4486 126.189 33.3014 126.639 33.9199C127.088 34.5319 127.713 34.8379 128.514 34.8379C129.314 34.8379 129.936 34.5254 130.379 33.9004C130.828 33.2754 131.053 32.3607 131.053 31.1562C131.053 30.0885 130.822 29.2422 130.359 28.6172C129.904 27.9922 129.282 27.6797 128.494 27.6797C127.719 27.6797 127.104 27.9889 126.648 28.6074C126.193 29.2194 125.965 30.1374 125.965 31.3613ZM135.008 31.1758C135.008 29.5352 135.392 28.2266 136.16 27.25C136.935 26.2669 137.96 25.7754 139.236 25.7754C140.441 25.7754 141.388 26.1953 142.078 27.0352L142.186 25.9707H144.324V36.2148C144.324 37.6016 143.891 38.6953 143.025 39.4961C142.166 40.2969 141.004 40.6973 139.539 40.6973C138.764 40.6973 138.006 40.5345 137.264 40.209C136.528 39.89 135.968 39.4701 135.584 38.9492L136.707 37.5234C137.436 38.3893 138.335 38.8223 139.402 38.8223C140.19 38.8223 140.812 38.6074 141.268 38.1777C141.723 37.7546 141.951 37.1296 141.951 36.3027V35.5898C141.268 36.3516 140.356 36.7324 139.217 36.7324C137.98 36.7324 136.967 36.2409 136.18 35.2578C135.398 34.2747 135.008 32.9141 135.008 31.1758ZM137.371 31.3809C137.371 32.4421 137.586 33.2786 138.016 33.8906C138.452 34.4961 139.054 34.7988 139.822 34.7988C140.779 34.7988 141.489 34.3887 141.951 33.5684V28.9199C141.502 28.1191 140.799 27.7188 139.842 27.7188C139.061 27.7188 138.452 28.028 138.016 28.6465C137.586 29.265 137.371 30.1764 137.371 31.3809ZM154.588 36.5371H152.127V22.3184H154.588V36.5371ZM159.598 25.9707L159.666 27.1914C160.447 26.2474 161.473 25.7754 162.742 25.7754C164.943 25.7754 166.062 27.0352 166.102 29.5547V36.5371H163.729V29.6914C163.729 29.0208 163.582 28.526 163.289 28.207C163.003 27.8815 162.531 27.7188 161.873 27.7188C160.916 27.7188 160.203 28.1517 159.734 29.0176V36.5371H157.361V25.9707H159.598ZM182.791 33.2656L184.471 25.9707H186.785L183.904 36.5371H181.951L179.686 29.2812L177.459 36.5371H175.506L172.615 25.9707H174.93L176.639 33.1875L178.807 25.9707H180.594L182.791 33.2656ZM190.896 36.5371H188.523V25.9707H190.896V36.5371ZM188.377 23.2266C188.377 22.862 188.491 22.5592 188.719 22.3184C188.953 22.0775 189.285 21.957 189.715 21.957C190.145 21.957 190.477 22.0775 190.711 22.3184C190.945 22.5592 191.062 22.862 191.062 23.2266C191.062 23.5846 190.945 23.8841 190.711 24.125C190.477 24.3594 190.145 24.4766 189.715 24.4766C189.285 24.4766 188.953 24.3594 188.719 24.125C188.491 23.8841 188.377 23.5846 188.377 23.2266ZM196.463 23.4023V25.9707H198.328V27.7285H196.463V33.627C196.463 34.0306 196.541 34.3236 196.697 34.5059C196.86 34.6816 197.146 34.7695 197.557 34.7695C197.83 34.7695 198.107 34.737 198.387 34.6719V36.5078C197.846 36.6576 197.326 36.7324 196.824 36.7324C195.001 36.7324 194.09 35.7266 194.09 33.7148V27.7285H192.352V25.9707H194.09V23.4023H196.463ZM202.488 27.123C203.263 26.2246 204.243 25.7754 205.428 25.7754C207.68 25.7754 208.823 27.0612 208.855 29.6328V36.5371H206.482V29.7207C206.482 28.9915 206.323 28.4772 206.004 28.1777C205.691 27.8717 205.229 27.7188 204.617 27.7188C203.667 27.7188 202.957 28.1419 202.488 28.9883V36.5371H200.115V21.5371H202.488V27.123ZM227.371 34.6914C226.857 35.362 226.144 35.8698 225.232 36.2148C224.321 36.5599 223.286 36.7324 222.127 36.7324C220.936 36.7324 219.881 36.4622 218.963 35.9219C218.045 35.3815 217.335 34.61 216.834 33.6074C216.339 32.5983 216.082 31.4232 216.062 30.082V28.9688C216.062 26.8203 216.577 25.1439 217.605 23.9395C218.634 22.7285 220.07 22.123 221.912 22.123C223.494 22.123 224.751 22.5137 225.682 23.2949C226.613 24.0762 227.173 25.2025 227.361 26.6738H224.939C224.666 24.9616 223.673 24.1055 221.961 24.1055C220.854 24.1055 220.011 24.5059 219.432 25.3066C218.859 26.1009 218.562 27.2695 218.543 28.8125V29.9062C218.543 31.4427 218.865 32.6374 219.51 33.4902C220.161 34.3366 221.062 34.7598 222.215 34.7598C223.478 34.7598 224.376 34.4733 224.91 33.9004V31.1172H221.98V29.2422H227.371V34.6914ZM229.412 31.1562C229.412 30.1211 229.617 29.1901 230.027 28.3633C230.438 27.5299 231.014 26.8919 231.756 26.4492C232.498 26 233.351 25.7754 234.314 25.7754C235.74 25.7754 236.896 26.2344 237.781 27.1523C238.673 28.0703 239.155 29.2878 239.227 30.8047L239.236 31.3613C239.236 32.403 239.035 33.334 238.631 34.1543C238.234 34.9746 237.661 35.6094 236.912 36.0586C236.17 36.5078 235.311 36.7324 234.334 36.7324C232.843 36.7324 231.648 36.2376 230.75 35.248C229.858 34.252 229.412 32.9271 229.412 31.2734V31.1562ZM231.785 31.3613C231.785 32.4486 232.01 33.3014 232.459 33.9199C232.908 34.5319 233.533 34.8379 234.334 34.8379C235.135 34.8379 235.757 34.5254 236.199 33.9004C236.648 33.2754 236.873 32.3607 236.873 31.1562C236.873 30.0885 236.642 29.2422 236.18 28.6172C235.724 27.9922 235.102 27.6797 234.314 27.6797C233.54 27.6797 232.924 27.9889 232.469 28.6074C232.013 29.2194 231.785 30.1374 231.785 31.3613ZM240.799 31.1562C240.799 30.1211 241.004 29.1901 241.414 28.3633C241.824 27.5299 242.4 26.8919 243.143 26.4492C243.885 26 244.738 25.7754 245.701 25.7754C247.127 25.7754 248.283 26.2344 249.168 27.1523C250.06 28.0703 250.542 29.2878 250.613 30.8047L250.623 31.3613C250.623 32.403 250.421 33.334 250.018 34.1543C249.62 34.9746 249.048 35.6094 248.299 36.0586C247.557 36.5078 246.697 36.7324 245.721 36.7324C244.23 36.7324 243.035 36.2376 242.137 35.248C241.245 34.252 240.799 32.9271 240.799 31.2734V31.1562ZM243.172 31.3613C243.172 32.4486 243.396 33.3014 243.846 33.9199C244.295 34.5319 244.92 34.8379 245.721 34.8379C246.521 34.8379 247.143 34.5254 247.586 33.9004C248.035 33.2754 248.26 32.3607 248.26 31.1562C248.26 30.0885 248.029 29.2422 247.566 28.6172C247.111 27.9922 246.489 27.6797 245.701 27.6797C244.926 27.6797 244.311 27.9889 243.855 28.6074C243.4 29.2194 243.172 30.1374 243.172 31.3613ZM252.215 31.1758C252.215 29.5352 252.599 28.2266 253.367 27.25C254.142 26.2669 255.167 25.7754 256.443 25.7754C257.648 25.7754 258.595 26.1953 259.285 27.0352L259.393 25.9707H261.531V36.2148C261.531 37.6016 261.098 38.6953 260.232 39.4961C259.373 40.2969 258.211 40.6973 256.746 40.6973C255.971 40.6973 255.213 40.5345 254.471 40.209C253.735 39.89 253.175 39.4701 252.791 38.9492L253.914 37.5234C254.643 38.3893 255.542 38.8223 256.609 38.8223C257.397 38.8223 258.019 38.6074 258.475 38.1777C258.93 37.7546 259.158 37.1296 259.158 36.3027V35.5898C258.475 36.3516 257.563 36.7324 256.424 36.7324C255.187 36.7324 254.174 36.2409 253.387 35.2578C252.605 34.2747 252.215 32.9141 252.215 31.1758ZM254.578 31.3809C254.578 32.4421 254.793 33.2786 255.223 33.8906C255.659 34.4961 256.261 34.7988 257.029 34.7988C257.986 34.7988 258.696 34.3887 259.158 33.5684V28.9199C258.709 28.1191 258.006 27.7188 257.049 27.7188C256.268 27.7188 255.659 28.028 255.223 28.6465C254.793 29.265 254.578 30.1764 254.578 31.3809ZM266.502 36.5371H264.129V21.5371H266.502V36.5371ZM273.748 36.7324C272.244 36.7324 271.023 36.2604 270.086 35.3164C269.155 34.3659 268.689 33.1029 268.689 31.5273V31.2344C268.689 30.1797 268.891 29.2389 269.295 28.4121C269.705 27.5788 270.278 26.931 271.014 26.4688C271.749 26.0065 272.57 25.7754 273.475 25.7754C274.913 25.7754 276.023 26.2344 276.805 27.1523C277.592 28.0703 277.986 29.3691 277.986 31.0488V32.0059H271.082C271.154 32.8783 271.443 33.5684 271.951 34.0762C272.465 34.584 273.11 34.8379 273.885 34.8379C274.972 34.8379 275.857 34.3984 276.541 33.5195L277.82 34.7402C277.397 35.3717 276.831 35.8633 276.121 36.2148C275.418 36.5599 274.627 36.7324 273.748 36.7324ZM273.465 27.6797C272.814 27.6797 272.286 27.9076 271.883 28.3633C271.486 28.819 271.232 29.4538 271.121 30.2676H275.643V30.0918C275.59 29.2975 275.379 28.6986 275.008 28.2949C274.637 27.8848 274.122 27.6797 273.465 27.6797Z" fill="black" fill-opacity="0.54"/>
</g>
<defs>
<filter id="filter0_dd_1_783" x="0.5" y="0.537109" width="351" height="62" filterUnits="userSpaceOnUse" color-interpolation-filters="sRGB">
<feFlood flood-opacity="0" result="BackgroundImageFix"/>
<feColorMatrix in="SourceAlpha" type="matrix" values="0 0 0 0 0 0 0 0 0 0 0 0 0 0 0 0 0 0 127 0" result="hardAlpha"/>
<feOffset dy="2"/>
<feGaussianBlur stdDeviation="1.5"/>
<feColorMatrix type="matrix" values="0 0 0 0 0 0 0 0 0 0 0 0 0 0 0 0 0 0 0.168 0"/>
<feBlend mode="normal" in2="BackgroundImageFix" result="effect1_dropShadow_1_783"/>
<feColorMatrix in="SourceAlpha" type="matrix" values="0 0 0 0 0 0 0 0 0 0 0 0 0 0 0 0 0 0 127 0" result="hardAlpha"/>
<feOffset/>
<feGaussianBlur stdDeviation="1.5"/>
<feColorMatrix type="matrix" values="0 0 0 0 0 0 0 0 0 0 0 0 0 0 0 0 0 0 0.084 0"/>
<feBlend mode="normal" in2="effect1_dropShadow_1_783" result="effect2_dropShadow_1_783"/>
<feBlend mode="normal" in="SourceGraphic" in2="effect2_dropShadow_1_783" result="shape"/>
</filter>
</defs>
</svg>
